<svg xmlns="http://www.w3.org/2000/svg" width="39" height="39" fill="none"><path fill="#FED136" fill-rule="evenodd" d="M23.06.37c1.316-.761 3-.31 3.76 1.007l4.13 7.154c.12.208.21.424.27.645h3.885a3.442 3.442 0 1 1 0 6.884H3.442a3.442 3.442 0 0 1 0-6.884h3.884c.06-.22.15-.437.27-.645l4.13-7.154a2.753 2.753 0 1 1 4.77 2.754l-2.914 5.045h11.383L22.05 4.131c-.76-1.317-.309-3 1.008-3.761ZM4.023 38.086l-1.191-20.65h32.88l-1.19 20.65H4.023ZM20.65 24.32a1.376 1.376 0 0 0-2.753 0v8.26a1.377 1.377 0 0 0 2.753 0v-8.26Zm6.883-1.376c.76 0 1.377.616 1.377 1.376v8.26a1.377 1.377 0 0 1-2.753 0v-8.26c0-.76.616-1.376 1.376-1.376ZM12.39 24.319a1.376 1.376 0 0 0-2.753 0v8.26a1.377 1.377 0 0 0 2.753 0v-8.26Z" clip-rule="evenodd"/></svg>