<svg xmlns="http://www.w3.org/2000/svg" width="41" height="34" fill="none"><path fill="#FED136" fill-rule="evenodd" d="M33.634 0H6.727A4.036 4.036 0 0 0 2.69 4.036v17.49c0 .471.08.924.23 1.345h-.23v2.69h4.036V4.037h26.907v21.526h4.036V22.87h-.23c.15-.42.23-.874.23-1.345V4.036A4.036 4.036 0 0 0 33.634 0ZM2.691 28.252h34.98a2.691 2.691 0 0 1 2.69 2.691c0 1.486-2.55 2.69-4.036 2.69H4.036C2.55 33.634 0 32.43 0 30.944a2.691 2.691 0 0 1 2.69-2.691Zm21.526 2.691h-8.073c-.743 0-1.345.301-1.345.673 0 .371.602.672 1.345.672h8.073c.743 0 1.345-.301 1.345-.672 0-.372-.602-.673-1.345-.673Zm-13.07-15.16 1.894-1.902a1.336 1.336 0 0 1 1.894 0l2.483 2.494 8.003-8.038a1.335 1.335 0 0 1 1.894 0l1.894 1.902a1.35 1.35 0 0 1 0 1.903L18.791 22.606a1.335 1.335 0 0 1-1.65.194 1.335 1.335 0 0 1-1.259-.357l-4.735-4.757a1.35 1.35 0 0 1 0-1.902Z" clip-rule="evenodd"/></svg>