<svg xmlns="http://www.w3.org/2000/svg" width="28" height="38" fill="none"><path fill="#FED136" fill-rule="evenodd" d="M14 0c5.154 0 9.332 3.656 9.332 8.167V17.5H24.5a3.5 3.5 0 0 1 3.5 3.5v12.832a3.5 3.5 0 0 1-3.5 3.5h-21A3.5 3.5 0 0 1 0 33.832V21a3.5 3.5 0 0 1 3.5-3.5h1.166V8.167C4.666 3.657 8.845 0 14 0Zm4.4 17.5H9.6a2.723 2.723 0 0 1-.266-1.168V8.168c0-1.933 2.09-3.5 4.666-3.5 2.578 0 4.667 1.567 4.667 3.5v8.165c0 .41-.094.803-.266 1.168Zm-2.067 12.208a4.666 4.666 0 1 0-4.666 0v1.79a2.333 2.333 0 1 0 4.666 0v-1.79Z" clip-rule="evenodd"/></svg>